<svg>
  <symbol id="search" xmlns="http://www.w3.org/2000/svg" width="24" height="20" viewBox="0 0 20 20" fill="none">
    <path d="M19 19L13 13L19 19ZM15 8C15 8.91925 14.8189 9.82951 14.4672 10.6788C14.1154 11.5281 13.5998 12.2997 12.9497 12.9497C12.2997 13.5998 11.5281 14.1154 10.6788 14.4672C9.82951 14.8189 8.91925 15 8 15C7.08075 15 6.1705 14.8189 5.32122 14.4672C4.47194 14.1154 3.70026 13.5998 3.05025 12.9497C2.40024 12.2997 1.88463 11.5281 1.53284 10.6788C1.18106 9.82951 1 8.91925 1 8C1 6.14348 1.7375 4.36301 3.05025 3.05025C4.36301 1.7375 6.14348 1 8 1C9.85652 1 11.637 1.7375 12.9497 3.05025C14.2625 4.36301 15 6.14348 15 8Z" stroke="white" stroke-width="2" stroke-linecap="round" stroke-linejoin="round"/>
  </symbol>

  <symbol id="notifications" xmlns="http://www.w3.org/2000/svg" width="24" height="24" viewBox="100 0 7 24" fill="none">
    <path d="M103.967 23.518C104.387 23.5077 104.79 23.3404 105.104 23.0455C105.419 22.7506 105.625 22.3473 105.687 21.9067H102.18C102.243 22.3592 102.459 22.7721 102.787 23.0685C103.116 23.3648 103.535 23.5246 103.967 23.518Z" fill="white"/>
    <path d="M103.967 23.518C104.387 23.5077 104.79 23.3404 105.104 23.0455C105.419 22.7506 105.625 22.3473 105.687 21.9067H102.18C102.243 22.3592 102.459 22.7721 102.787 23.0685C103.116 23.3648 103.535 23.5246 103.967 23.518Z" stroke="white"/>
    <path d="M113.772 18.4149C113.125 17.8254 112.558 17.1496 112.087 16.4057C111.573 15.3788 111.265 14.2573 111.181 13.1072V9.71956C111.178 9.30807 111.143 8.89752 111.074 8.49206C110.546 8.38417 110.038 8.18964 109.57 7.91603C109.749 8.50224 109.839 9.11259 109.839 9.72642V13.114C109.921 14.5171 110.299 15.8855 110.946 17.1257C111.41 17.8759 111.959 18.5666 112.584 19.183H95.396C96.0204 18.5666 96.5702 17.8759 97.0336 17.1257C97.6809 15.8855 98.0587 14.5171 98.1409 13.114V9.71956C98.1374 8.92593 98.2871 8.13938 98.5815 7.40495C98.8759 6.67052 99.3092 6.00264 99.8565 5.43954C100.404 4.87645 101.055 4.4292 101.771 4.12341C102.488 3.81762 103.257 3.65929 104.034 3.6575C105.17 3.65843 106.282 4.00192 107.228 4.64498C107.124 4.25341 107.065 3.85058 107.054 3.44492V3.01289C106.353 2.66066 105.6 2.42896 104.826 2.32714V1.46309C104.826 1.22029 104.731 0.987432 104.563 0.815746C104.395 0.64406 104.167 0.547607 103.93 0.547607C103.692 0.547607 103.464 0.64406 103.296 0.815746C103.128 0.987432 103.034 1.22029 103.034 1.46309V2.36143C101.299 2.61142 99.7118 3.49411 98.5646 4.84655C97.4174 6.19899 96.7877 7.92984 96.7919 9.71956V13.1072C96.7079 14.2573 96.3999 15.3788 95.8859 16.4057C95.4234 17.1479 94.8659 17.8236 94.2282 18.4149C94.1566 18.4792 94.0992 18.5583 94.0599 18.647C94.0205 18.7356 94.0001 18.8319 94 18.9292V19.8619C94 20.0437 94.0707 20.2182 94.1966 20.3468C94.3224 20.4754 94.4931 20.5476 94.6711 20.5476H113.329C113.507 20.5476 113.678 20.4754 113.803 20.3468C113.929 20.2182 114 20.0437 114 19.8619V18.9292C114 18.8319 113.979 18.7356 113.94 18.647C113.901 18.5583 113.843 18.4792 113.772 18.4149Z" fill="white"/>
    <path d="M111.967 7.06667C113.808 7.06667 115.3 5.48474 115.3 3.53333C115.3 1.58193 113.808 0 111.967 0C110.126 0 108.633 1.58193 108.633 3.53333C108.633 5.48474 110.126 7.06667 111.967 7.06667Z" fill="#26FFF2"/>
    <path d="M111.967 7.06667C113.808 7.06667 115.3 5.48474 115.3 3.53333C115.3 1.58193 113.808 0 111.967 0C110.126 0 108.633 1.58193 108.633 3.53333C108.633 5.48474 110.126 7.06667 111.967 7.06667Z" stroke="#326CFF"/>
  </symbol>

  <symbol id="add" xmlns="http://www.w3.org/2000/svg" width="24" height="24" viewBox="190 0 20 24" fill="none">
    <path d="M204.185 14.6891C204.765 14.3844 205.429 14.2109 206.136 14.2109H206.138C206.21 14.2109 206.244 14.1266 206.191 14.0797C205.456 13.4344 204.616 12.9132 203.705 12.5375C203.696 12.5328 203.686 12.5305 203.677 12.5258C205.165 11.4687 206.133 9.75078 206.133 7.8125C206.133 4.60156 203.478 2 200.201 2C196.925 2 194.272 4.60156 194.272 7.8125C194.272 9.75078 195.24 11.4687 196.731 12.5258C196.721 12.5305 196.712 12.5328 196.702 12.5375C195.631 12.9805 194.669 13.6156 193.843 14.4266C193.02 15.229 192.366 16.1803 191.916 17.2273C191.472 18.2526 191.233 19.3512 191.211 20.4641C191.21 20.4891 191.215 20.514 191.224 20.5373C191.233 20.5605 191.247 20.5818 191.265 20.5997C191.283 20.6176 191.305 20.6318 191.328 20.6415C191.352 20.6513 191.377 20.6563 191.403 20.6562H192.838C192.941 20.6562 193.028 20.5742 193.03 20.4734C193.078 18.6641 193.819 16.9695 195.13 15.6852C196.484 14.3563 198.286 13.625 200.204 13.625C201.563 13.625 202.866 13.993 203.991 14.682C204.019 14.6998 204.053 14.7098 204.087 14.711C204.121 14.7122 204.155 14.7047 204.185 14.6891ZM200.204 11.8438C199.106 11.8438 198.073 11.4242 197.294 10.6625C196.911 10.2887 196.607 9.84443 196.4 9.35529C196.193 8.86616 196.087 8.34183 196.088 7.8125C196.088 6.73672 196.517 5.72422 197.294 4.9625C198.071 4.20078 199.104 3.78125 200.204 3.78125C201.304 3.78125 202.334 4.20078 203.113 4.9625C203.497 5.33631 203.8 5.78057 204.007 6.26971C204.214 6.75884 204.32 7.28317 204.319 7.8125C204.319 8.88828 203.89 9.90078 203.113 10.6625C202.334 11.4242 201.301 11.8438 200.204 11.8438ZM209.019 17.4219H207.006V15.4531C207.006 15.35 206.919 15.2656 206.814 15.2656H205.472C205.366 15.2656 205.28 15.35 205.28 15.4531V17.4219H203.267C203.161 17.4219 203.075 17.5063 203.075 17.6094V18.9219C203.075 19.025 203.161 19.1094 203.267 19.1094H205.28V21.0781C205.28 21.1812 205.366 21.2656 205.472 21.2656H206.814C206.919 21.2656 207.006 21.1812 207.006 21.0781V19.1094H209.019C209.125 19.1094 209.211 19.025 209.211 18.9219V17.6094C209.211 17.5063 209.125 17.4219 209.019 17.4219Z" fill="white"/>
  </symbol>

  <symbol id="play" width="14" height="18" viewBox="0 0 14 18" fill="none" xmlns="http://www.w3.org/2000/svg">
    <path d="M13.2923 10.3932L2.15764 17.7762C1.21269 18.4021 0 17.6442 0 16.3824V1.61647C0 0.356646 1.21094 -0.403248 2.15764 0.224664L13.2923 7.60763C13.5073 7.74786 13.686 7.95055 13.8103 8.19516C13.9345 8.43977 14 8.71759 14 9.00043C14 9.28328 13.9345 9.5611 13.8103 9.80571C13.686 10.0503 13.5073 10.253 13.2923 10.3932Z" fill="white"/>
  </symbol>

  <symbol id="star" width="16" height="16" viewBox="0 0 16 16" fill="none" xmlns="http://www.w3.org/2000/svg">
    <path d="M3.612 15.443C3.226 15.641 2.788 15.294 2.866 14.851L3.696 10.121L0.172996 6.76501C-0.156004 6.45101 0.0149962 5.87701 0.455996 5.81501L5.354 5.11901L7.538 0.792012C7.735 0.402012 8.268 0.402012 8.465 0.792012L10.649 5.11901L15.547 5.81501C15.988 5.87701 16.159 6.45101 15.83 6.76501L12.307 10.121L13.137 14.851C13.215 15.294 12.777 15.641 12.391 15.443L8 13.187L3.612 15.443Z" fill="#FFB800"/>
  </symbol>

  <symbol id="arrow" width="20" height="20"  xmlns="http://www.w3.org/2000/svg" viewBox="0 0 22 22">
    <path d="m345.44 248.29l-194.29 194.28c-12.359 12.365-32.397 12.365-44.75 0-12.354-12.354-12.354-32.391 0-44.744l171.91-171.91-171.91-171.9c-12.354-12.359-12.354-32.394 0-44.748 12.354-12.359 32.391-12.359 44.75 0l194.29 194.28c6.177 6.18 9.262 14.271 9.262 22.366 0 8.099-3.091 16.196-9.267 22.373" transform="matrix(.03541-.00013.00013.03541 2.98 3.02)" fill="white"/>
  </symbol>

  <symbol id="romance" xmlns="http://www.w3.org/2000/svg" width="80" height="80" viewBox="0 0 80 80" fill="none">
    <path d="M79.2458 32.2615C79.2458 26.499 77.0565 21.0958 73.0808 17.0473C69.0832 12.9762 63.7215 10.7344 57.9834 10.7344C50.6748 10.7344 43.9625 14.3981 40.0001 20.424C36.0376 14.398 29.3253 10.7344 22.0167 10.7344C16.2786 10.7344 10.9169 12.9766 6.91926 17.0475C2.94364 21.0961 0.754272 26.4992 0.754272 32.2617C0.754272 37.6626 2.31724 40.8193 3.57317 43.356L3.70974 43.6321C8.90988 54.1666 37.9844 78.3311 39.2194 79.3547L39.9979 80L40.7783 79.3566C40.8073 79.3325 43.5497 77.0696 47.455 73.6821C51.094 76.9283 53.9875 79.3289 54.0185 79.3545L54.7971 79.9999L55.5775 79.3564C56.3414 78.7266 74.323 63.8561 77.3999 57.3624L77.4855 57.1823C78.2283 55.6196 79.2457 53.4798 79.2457 50.2246C79.2457 47.4002 78.4193 44.7268 76.8529 42.4431C77.9052 40.1868 79.2458 36.9331 79.2458 32.2615ZM75.2757 56.1316L75.1887 56.3148C72.6841 61.6007 58.3253 73.8575 54.8009 76.8175C53.5929 75.7988 51.1107 73.6825 48.2853 71.1408C44.0072 67.2925 40.5754 63.9408 38.1515 61.2588C37.4783 60.5138 36.8826 59.8204 36.3684 59.1824C36.1626 58.9272 35.97 58.681 35.7905 58.4438C35.1622 57.6135 34.6959 56.8946 34.4012 56.2973L34.3503 56.1943C33.6358 54.7482 32.8258 53.1094 32.8258 50.2251C32.8258 43.9573 37.653 39.0476 43.8153 39.0476C47.9817 39.0476 51.7754 41.3415 53.7159 45.0338L54.799 47.0946L55.8821 45.0338C57.8226 41.3413 61.6163 39.0476 65.7827 39.0476C69.2132 39.0476 72.3793 40.6049 74.4688 43.3199C75.9929 45.3002 76.7983 47.6879 76.7983 50.2251C76.7988 52.9277 75.9898 54.6299 75.2757 56.1316ZM75.1052 40.3637C75.1001 40.3587 75.0943 40.3538 75.0891 40.3487C74.9541 40.2179 74.816 40.0907 74.676 39.9663C74.6516 39.9446 74.6276 39.9226 74.603 39.901C74.4626 39.7779 74.3198 39.6581 74.1749 39.5413C74.1462 39.5184 74.1176 39.4956 74.0887 39.4726C73.9401 39.3548 73.7896 39.2396 73.6365 39.1285C73.623 39.1187 73.6095 39.1096 73.5959 39.0998C73.4476 38.9931 73.2971 38.8899 73.1449 38.7898C73.1215 38.7743 73.0982 38.7584 73.0748 38.7431C72.9187 38.6417 72.7602 38.544 72.6001 38.4495C72.5687 38.4309 72.5369 38.4124 72.5052 38.394C72.3432 38.3001 72.1798 38.209 72.014 38.1221C71.9943 38.1117 71.974 38.102 71.9543 38.0917C71.7938 38.0085 71.6316 37.9287 71.4679 37.8523C71.447 37.8424 71.4263 37.8323 71.4054 37.8226C71.2355 37.7443 71.0637 37.6704 70.8904 37.5995C70.8566 37.5856 70.8227 37.5718 70.7888 37.5582C70.6159 37.489 70.4416 37.4228 70.2657 37.3609C70.2402 37.352 70.2145 37.3435 70.1888 37.3346C70.017 37.2753 69.8437 37.2192 69.669 37.1667C69.6518 37.1615 69.6349 37.1559 69.6177 37.1509C69.4365 37.0974 69.2535 37.0484 69.0695 37.0026C69.0338 36.9939 68.9985 36.9848 68.9629 36.9762C68.7815 36.9324 68.599 36.8921 68.4151 36.856C68.3841 36.8499 68.3529 36.8445 68.3218 36.8385C68.1379 36.8037 67.953 36.7718 67.7671 36.7446C67.7566 36.7432 67.7462 36.7412 67.7359 36.7398C67.5448 36.7123 67.3526 36.6899 67.1596 36.6704C67.1232 36.6668 67.0868 36.6629 67.0506 36.6595C66.8626 36.642 66.6737 36.6284 66.484 36.6187C66.4491 36.617 66.4141 36.6157 66.3793 36.6143C66.1815 36.6059 65.9829 36.6001 65.7834 36.6001C61.394 36.6001 57.3446 38.6879 54.7995 42.1601C52.2545 38.6881 48.205 36.6001 43.8156 36.6001C43.1345 36.6001 42.4619 36.6499 41.8019 36.7482C38.9417 37.1735 36.3183 38.5042 34.2666 40.5998C31.7597 43.1602 30.3791 46.5784 30.3791 50.2246C30.3791 53.6805 31.3647 55.6752 32.1567 57.278L32.2072 57.3801C32.2539 57.4748 32.3039 57.5715 32.3567 57.6699C32.3737 57.7013 32.3927 57.7343 32.4102 57.7662C32.4475 57.8341 32.4847 57.9019 32.525 57.9718C32.548 58.0116 32.5731 58.0529 32.597 58.0933C32.6347 58.1571 32.6719 58.2205 32.7119 58.2858C32.7394 58.3307 32.7689 58.3769 32.7976 58.4224C32.837 58.4851 32.8758 58.5474 32.9172 58.6113C32.9486 58.6599 32.9823 58.7099 33.0148 58.7593C33.0564 58.8222 33.0978 58.8851 33.1416 58.9493C33.1762 59.0005 33.213 59.0529 33.2489 59.1049C33.2934 59.1691 33.3378 59.2335 33.3844 59.299C33.4225 59.3529 33.4623 59.4077 33.5019 59.4626C33.5492 59.5282 33.5966 59.5937 33.6456 59.6605C33.6872 59.7171 33.7305 59.7747 33.7734 59.8321C33.8236 59.899 33.8736 59.966 33.9255 60.0341C33.9703 60.0932 34.0167 60.1529 34.063 60.2127C34.1158 60.2811 34.1691 60.3496 34.2234 60.4191C34.2719 60.4808 34.3217 60.5433 34.3716 60.6058C34.427 60.6755 34.4831 60.7455 34.5405 60.8163C34.592 60.8801 34.6445 60.9444 34.6973 61.009C34.7561 61.0805 34.8155 61.1527 34.8758 61.2254C34.9305 61.2913 34.9859 61.3576 35.042 61.4244C35.1039 61.498 35.1667 61.5722 35.2301 61.6469C35.2878 61.7146 35.3458 61.7827 35.4047 61.8512C35.4695 61.9265 35.5353 62.0026 35.6019 62.0791C35.6628 62.1493 35.7242 62.2197 35.7867 62.2908C35.8542 62.3679 35.9233 62.4457 35.9925 62.5237C36.0564 62.5957 36.1206 62.6679 36.1859 62.741C36.2567 62.8199 36.329 62.8999 36.4014 62.98C36.4686 63.0543 36.5358 63.1285 36.6045 63.2036C36.6781 63.2843 36.7533 63.3658 36.8286 63.4474C36.899 63.524 36.9692 63.6001 37.0409 63.6774C37.1173 63.7596 37.1956 63.843 37.2736 63.9261C37.3475 64.005 37.4209 64.0836 37.4962 64.1635C37.5751 64.2471 37.6561 64.3318 37.7365 64.4163C37.8139 64.4975 37.8903 64.5783 37.9692 64.6604C38.0514 64.746 38.1358 64.8332 38.2195 64.9197C38.2997 65.0025 38.3787 65.085 38.4603 65.1688C38.5467 65.2577 38.6358 65.3482 38.7239 65.4382C38.8055 65.5215 38.8859 65.604 38.9689 65.6882C39.0619 65.7824 39.1575 65.8783 39.2523 65.9738C39.3337 66.0558 39.4139 66.1369 39.4967 66.2197C39.5955 66.3186 39.697 66.4193 39.7976 66.5193C39.9584 66.6791 40.1215 66.8407 40.2872 67.0035C40.3898 67.1046 40.4914 67.2047 40.5958 67.3071C40.6889 67.3982 40.7848 67.491 40.8794 67.583C40.9787 67.6796 41.0769 67.7755 41.1778 67.873C41.277 67.9691 41.3789 68.0666 41.4798 68.1638C41.5787 68.2589 41.6765 68.3533 41.7769 68.4494C41.8801 68.5483 41.9858 68.6486 42.0906 68.7485C42.192 68.8452 42.2929 68.9413 42.3958 69.0388C42.5006 69.1382 42.6076 69.2389 42.714 69.3394C42.82 69.4393 42.9253 69.5388 43.0326 69.6396C43.1414 69.7418 43.2522 69.845 43.3625 69.9482C43.4695 70.0482 43.5761 70.1479 43.6843 70.2486C43.7989 70.3552 43.9153 70.463 44.0315 70.5707C44.1392 70.6705 44.2468 70.7702 44.3561 70.8708C44.4734 70.9789 44.5923 71.0883 44.7112 71.1975C44.8228 71.3002 44.9345 71.4027 45.0476 71.5061C45.1665 71.6149 45.287 71.7247 45.4075 71.8346C45.4795 71.9003 45.5503 71.965 45.6229 72.0313C43.0726 74.2405 41.0486 75.9444 40.0025 76.8185C35.2644 72.8368 10.4191 51.6959 5.90395 42.5485L5.76614 42.2699C4.5638 39.8418 3.2013 37.0898 3.2013 32.2614C3.2013 21.5622 11.466 13.1811 22.0167 13.1811C29.1289 13.1811 35.6047 17.0966 38.917 23.3992L40.0001 25.4601L41.0833 23.3992C44.3956 17.0966 50.8714 13.1811 57.9835 13.1811C68.5343 13.1811 76.799 21.5622 76.799 32.2614C76.7988 35.7779 75.9637 38.3618 75.1052 40.3637Z" fill="white"/>
    <path d="M23.1131 0H20.6661V7.61795H23.1131V0Z" fill="white"/>
    <path d="M32.4592 2.22225L29.2613 9.13616L31.4822 10.1634L34.6802 3.24951L32.4592 2.22225Z" fill="white"/>
    <path d="M11.3186 2.22105L9.09772 3.24831L12.2957 10.1622L14.5166 9.13497L11.3186 2.22105Z" fill="white"/>
    <path d="M8.42359 33.5975C8.42359 33.4825 8.42468 33.3677 8.42718 33.253L5.98063 33.2022C5.97781 33.3338 5.97656 33.4653 5.97656 33.5975C5.97656 35.2383 6.14344 36.7336 6.48687 38.1687L8.86671 37.5992C8.56843 36.353 8.42359 35.0439 8.42359 33.5975Z" fill="white"/>
    <path d="M11.7391 20.1483C8.80821 22.9034 6.8443 26.6278 6.20868 30.6356L8.62555 31.0189C9.17649 27.5443 10.8774 24.317 13.4151 21.9314L11.7391 20.1483Z" fill="white"/>
    <path d="M40.6958 41.6932C37.3316 43.2534 35.1313 46.5656 34.9538 50.3374L37.398 50.4524C37.5324 47.5942 39.1907 45.0886 41.7253 43.9132L40.6958 41.6932Z" fill="white"/>
  </symbol>

  <symbol id="drama" xmlns="http://www.w3.org/2000/svg" width="80" height="75" viewBox="0 0 80 80" fill="none">
    <path d="M74.9285 3.1296L73.6388 2.80848C59.347 -0.750564 44.4006 -0.750564 30.1088 2.80848L28.8204 3.1296C25.8369 3.87188 23.7435 6.55261 23.7467 9.62705V18.953C17.0884 20.8392 10.6688 23.4859 4.61604 26.8409L3.44669 27.4851C0.756803 28.971 -0.570156 32.1023 0.232298 35.0688L4.13012 49.6438C7.64404 62.725 17.314 73.2714 30.0415 77.9049L34.0596 79.3784C38.8259 81.0925 44.1554 79.6616 47.4214 75.7899L50.1649 72.5127C52.7188 69.4743 54.8148 66.0794 56.3877 62.4346C57.232 62.107 58.0371 61.6832 58.7866 61.1731L62.29 58.7206C73.3851 50.9465 79.9944 38.2518 80.0009 24.7043V9.62705C80.0042 6.55327 77.9114 3.87254 74.9285 3.1296ZM48.114 70.7914L45.3698 74.0712C42.8284 77.0822 38.6834 78.1953 34.9759 76.8611L30.9577 75.3883C19.0517 71.053 10.0056 61.1868 6.71798 48.9499L2.81885 34.3749C2.33882 32.5974 3.13343 30.7224 4.74487 29.8316L5.91291 29.1874C11.5641 26.0541 17.5449 23.5565 23.7467 21.7404V24.7043C23.7559 36.7018 28.9506 48.1089 37.9934 55.9928C35.6377 56.9502 33.1506 57.548 30.6163 57.7645L20.5441 58.5813C19.9346 58.6297 19.4349 59.0849 19.3303 59.6879C19.2257 60.2908 19.5429 60.8879 20.1007 61.1384L33.4534 67.1656C36.361 68.4835 39.7945 67.5652 41.6571 64.9715L44.5791 60.9069L44.9611 61.1744C46.9878 62.5896 49.4017 63.3476 51.8738 63.3443C52.2754 63.3443 52.6639 63.2933 53.0589 63.2548C51.7136 65.9531 50.0538 68.4828 48.114 70.7914ZM40.355 57.9011C40.7206 58.1693 41.077 58.4583 41.453 58.7206L42.3804 59.3694L39.4767 63.4097C38.3583 64.9643 36.2982 65.5137 34.554 64.7223L25.9324 60.8382L30.8321 60.4367C34.1309 60.16 37.3551 59.302 40.355 57.9011ZM77.3221 24.7043C77.3169 37.3781 71.134 49.2527 60.7551 56.5258L57.2516 58.9783C54.0196 61.23 49.7274 61.23 46.496 58.9783L42.9939 56.5258C32.6143 49.2533 26.4307 37.3781 26.4255 24.7043V9.62705C26.4255 7.78343 27.6799 6.17657 29.4686 5.72923L30.7582 5.40681C44.6236 1.95306 59.124 1.95306 72.9894 5.40681L74.2791 5.72923C76.0671 6.17657 77.3221 7.78343 77.3221 9.62705V24.7043Z" fill="white"/>
    <path d="M46.9079 25.1426L48.7346 23.1819C44.547 19.0042 37.7683 19.0042 33.5808 23.1819L33.5141 23.2486L35.4748 25.0759C36.9934 23.5566 39.0574 22.7084 41.2051 22.7208C43.3535 22.7339 45.407 23.6057 46.9079 25.1426Z" fill="white"/>
    <path d="M55.0109 23.1819L54.9442 23.2486L56.9049 25.0759C58.4235 23.5566 60.4875 22.7084 62.6352 22.7208C64.7836 22.7339 66.8371 23.6057 68.3381 25.1426L70.1647 23.1819C65.9771 19.0042 59.1985 19.0042 55.0109 23.1819Z" fill="white"/>
    <path d="M19.0981 44.5545C21.1922 43.9927 23.4243 44.3008 25.2875 45.4086L26.536 43.0366C21.4113 40.0779 14.8582 41.8332 11.8989 46.9573L11.8524 47.039L13.0107 47.7087L14.216 48.2954C15.2781 46.4459 17.036 45.0986 19.0981 44.5545Z" fill="white"/>
    <path d="M66.3662 37.6109L56.4267 39.4192C53.4157 39.9685 50.3302 39.9685 47.3192 39.4192L37.3778 37.6109C36.7774 37.5017 36.1783 37.8123 35.9226 38.3669C35.6663 38.9215 35.8173 39.5788 36.2902 39.9653L47.6324 49.2422C50.1019 51.2526 53.644 51.2526 56.1135 49.2422L67.4538 39.9627C67.9266 39.5761 68.0783 38.9189 67.822 38.3643C67.5662 37.8097 66.9672 37.499 66.3662 37.6083V37.6109ZM54.4177 47.171C52.9363 48.3789 50.8096 48.3789 49.3283 47.171L41.9963 41.1732L46.8404 42.0535C50.1673 42.6617 53.576 42.6617 56.9022 42.0535L61.747 41.1732L54.4177 47.171Z" fill="white"/>
  </symbol>

  <symbol id="historical" xmlns="http://www.w3.org/2000/svg" width="80" height="80" viewBox="0 0 80 80" fill="none">
    <path d="M51.7266 69.165C52.7362 68.0719 53.1701 66.7315 53.1701 65.2496C53.1701 63.7634 52.7447 62.4139 51.7266 61.3214C50.7348 60.2557 49.4818 59.7644 48.0383 59.7644C46.5905 59.7644 45.324 60.2423 44.3237 61.3037C43.3007 62.3919 42.8802 63.7372 42.8802 65.2234C42.8802 66.7187 43.3007 68.081 44.328 69.1784C45.324 70.2441 46.5771 70.7354 48.0249 70.7354C49.4769 70.7354 50.7342 70.2398 51.7266 69.165ZM46.4044 67.3999C45.9216 66.7846 45.7757 66.0016 45.7757 65.2362C45.7757 64.4757 45.935 63.7231 46.4221 63.1262C46.8383 62.6129 47.3651 62.3565 48.0249 62.3565C48.6889 62.3565 49.2291 62.6001 49.6411 63.1262C50.1239 63.7365 50.274 64.5019 50.274 65.263C50.274 66.0241 50.1147 66.7846 49.6368 67.3907C49.2205 67.9168 48.6889 68.1695 48.0249 68.1695C47.3565 68.1695 46.8206 67.926 46.4044 67.3999Z" fill="white"/>
    <path d="M41.3348 59.9414H36.137C35.783 59.9414 35.473 60.0781 35.2294 60.3351C34.9902 60.5871 34.862 60.8923 34.862 61.242C34.862 61.6089 34.9902 61.9275 35.2514 62.1838C35.4949 62.4139 35.7873 62.5512 36.1236 62.5512H37.337V69.2578C37.337 69.6423 37.4786 69.9786 37.7484 70.2484L37.7532 70.2575L37.7618 70.2618C38.045 70.5139 38.3819 70.6689 38.7628 70.6689C39.1387 70.6689 39.4665 70.5182 39.7277 70.2484C39.9932 69.9743 40.1348 69.6423 40.1348 69.2578V62.5647H41.3348C41.6845 62.5647 41.9946 62.4365 42.2424 62.1838C42.4902 61.9317 42.6232 61.6223 42.6232 61.2683C42.6232 60.91 42.4951 60.5914 42.2467 60.3351C41.9989 60.0781 41.6888 59.9414 41.3348 59.9414Z" fill="white"/>
    <path d="M31.2664 67.7667C31.0412 67.9394 30.7665 68.0011 30.4827 68.0011C30.0445 68.0011 29.5354 67.8467 29.1283 67.6959C28.8403 67.5946 28.3532 67.4176 28.0523 67.4176C27.6977 67.4176 27.3882 67.55 27.1532 67.8155C26.9097 68.0853 26.8035 68.4125 26.8035 68.7707V68.8415C26.8035 69.5227 27.3394 69.9518 27.9015 70.2215C28.6633 70.5847 29.5397 70.6952 30.3722 70.6952C31.4526 70.6952 32.5018 70.4339 33.33 69.6997C34.1045 69.01 34.4677 68.125 34.4677 67.0856C34.4677 65.9881 34.0429 65.0946 33.1036 64.5196C32.5237 64.1479 31.7315 63.9001 31.0717 63.7103C30.8062 63.6395 30.5407 63.5596 30.2837 63.4625C30.1952 63.4314 30.0268 63.3697 29.9468 63.3118C29.8632 63.241 29.7655 63.1439 29.7655 63.0243C29.7655 62.8564 29.8498 62.7411 29.978 62.644C30.1641 62.5067 30.3808 62.4536 30.6066 62.4536C30.8233 62.4536 31.1028 62.5244 31.3103 62.5824L31.7046 62.7191C31.9482 62.7991 32.2717 62.901 32.528 62.901C32.8869 62.901 33.1921 62.7594 33.4313 62.4939C33.6706 62.2327 33.7902 61.914 33.7902 61.56C33.7902 60.9454 33.3697 60.5249 32.86 60.2466C32.2271 59.906 31.4965 59.7906 30.7885 59.7906C29.7478 59.7906 28.778 60.0647 27.9766 60.7464C27.224 61.3965 26.8432 62.2327 26.8432 63.2324C26.8432 64.1833 27.1935 64.9756 27.9943 65.4974C28.2336 65.6567 28.5259 65.7806 28.7957 65.8868C29.19 66.037 29.5971 66.1651 30.0048 66.2848C30.3808 66.3952 30.8239 66.5234 31.1822 66.687C31.2798 66.7316 31.4123 66.8066 31.4703 66.9037C31.5234 67.0013 31.5453 67.1161 31.5453 67.2265C31.5453 67.4573 31.4526 67.6251 31.2664 67.7667Z" fill="white"/>
    <path d="M66.7932 70.2527C67.0679 70.5182 67.3957 70.6689 67.7759 70.6689C68.1659 70.6689 68.5065 70.5182 68.772 70.2307C69.0332 69.9518 69.1754 69.6161 69.1754 69.2309V65.6476L71.7743 62.091C71.9599 61.839 72.0484 61.5515 72.0484 61.2414C72.0484 60.852 71.8982 60.5163 71.615 60.2508C71.3446 59.9896 71.0126 59.8437 70.636 59.8437C70.1538 59.8437 69.7638 60.0561 69.494 60.4541L67.7759 62.9181L66.0718 60.4541C65.8057 60.0512 65.412 59.8437 64.9292 59.8437C64.5349 59.8437 64.1809 59.981 63.902 60.2643C63.6365 60.5298 63.4857 60.8612 63.4857 61.2414C63.4857 61.5558 63.6054 61.8432 63.7915 62.091L66.3636 65.6476V69.2309C66.3636 69.6289 66.5058 69.9786 66.7932 70.2527Z" fill="white"/>
    <path d="M62.5823 63.3563C62.5823 62.3828 62.2418 61.5472 61.5112 60.8966C60.7678 60.2331 59.851 59.9591 58.8592 59.9591H56.2914C55.8972 59.9591 55.5517 60.0958 55.277 60.3747C54.9938 60.6579 54.8608 61.0119 54.8608 61.4099V69.2309C54.8608 69.6246 54.9981 69.9701 55.277 70.2484L55.2819 70.2576L55.2862 70.2618C55.5737 70.5139 55.9057 70.6689 56.2908 70.6689C56.6674 70.6689 57.0037 70.5365 57.2741 70.2661C57.5439 69.9921 57.6769 69.6557 57.6769 69.2706V67.0105L60.1788 70.0891C60.462 70.4388 60.8251 70.6689 61.2811 70.6689C61.6619 70.6689 62.0025 70.5316 62.2863 70.271L62.2949 70.2661L62.2991 70.2576C62.5561 69.9743 62.7068 69.6423 62.7068 69.2578C62.7068 68.9081 62.5781 68.6029 62.3437 68.3423L60.4577 66.2671C60.7763 66.1786 61.0998 66.0596 61.3519 65.8868C62.2198 65.2893 62.5823 64.3957 62.5823 63.3563ZM59.5141 64.024C59.3328 64.1968 59.1247 64.2853 58.872 64.2853H57.6904V62.5824H58.8458C59.0978 62.5824 59.3237 62.6483 59.5056 62.8345L59.5098 62.8387L59.519 62.843C59.6911 62.998 59.7845 63.1793 59.7845 63.4137C59.7845 63.6572 59.6911 63.8519 59.5141 64.024Z" fill="white"/>
    <path d="M17.9358 70.271C18.2055 70.545 18.5418 70.6824 18.927 70.6824C19.317 70.6824 19.6533 70.5365 19.9237 70.2533C20.1849 69.9786 20.3265 69.6515 20.3265 69.2712V61.2683C20.3265 60.8746 20.1892 60.5298 19.9145 60.2466C19.6447 59.9768 19.3127 59.8309 18.9276 59.8309C18.5424 59.8309 18.2104 59.9945 17.9443 60.2728C17.6831 60.5517 17.528 60.8838 17.528 61.2683V63.8251H13.8574V61.2683C13.8574 60.8789 13.7207 60.5383 13.4546 60.26C13.1891 59.9811 12.857 59.8309 12.4719 59.8309C12.0819 59.8309 11.7456 59.9902 11.4752 60.2728C11.2097 60.5517 11.0589 60.8838 11.0589 61.2683V69.2712C11.0589 69.66 11.1963 70.0006 11.4752 70.2753C11.7498 70.545 12.0862 70.6824 12.4719 70.6824C12.857 70.6824 13.1933 70.545 13.4588 70.271C13.7292 69.9969 13.8574 69.6564 13.8574 69.2712V66.4355H17.528V69.2706C17.528 69.66 17.6654 69.9963 17.9358 70.271Z" fill="white"/>
    <path d="M22.7258 60.2728C22.4646 60.5517 22.3095 60.8838 22.3095 61.2683V69.2578C22.3095 69.6423 22.4469 69.9835 22.7172 70.2575C22.987 70.5316 23.3282 70.6689 23.7091 70.6689C24.0942 70.6689 24.4305 70.5316 24.7009 70.2575C24.9707 69.9878 25.108 69.6557 25.108 69.2706V61.2683C25.108 60.8789 24.9749 60.5383 24.7052 60.2594C24.4397 59.981 24.1076 59.8303 23.7219 59.8303C23.3325 59.8303 22.9962 59.9902 22.7258 60.2728Z" fill="white"/>
    <path d="M78.4246 24.9573H19.7814L77.3553 13.8269C77.7654 13.7476 78.128 13.5083 78.3618 13.1623C78.5961 12.8156 78.6828 12.3908 78.6029 11.98L76.8633 2.99564C76.6973 2.14115 75.8709 1.58207 75.017 1.74808L58.518 4.93717C58.4838 4.94266 58.449 4.94877 58.4149 4.9567L8.53999 14.5972C8.5345 14.5984 8.52961 14.599 8.52412 14.6003L1.2768 16.001C0.866038 16.081 0.5041 16.3196 0.270335 16.6663C0.0359601 17.0124 -0.0507099 17.4378 0.0286359 17.8479L1.74006 26.684V76.7072C1.74006 77.5776 2.44563 78.2831 3.31599 78.2831H33.4008C34.2712 78.2831 34.9768 77.5776 34.9768 76.7072C34.9768 75.8374 34.2712 75.1319 33.4008 75.1319H4.89131V37.2614H11.8865L11.8908 37.262L11.8933 37.2614H24.5935L24.5977 37.262L24.6002 37.2614H37.3052L37.3089 37.262L37.312 37.2614H50.0122L50.0158 37.262L50.0189 37.2614H62.7191L62.7227 37.262L62.7258 37.2614H76.8487V75.1319H47.5866C46.7163 75.1319 46.0107 75.8374 46.0107 76.7072C46.0107 77.5776 46.7163 78.2831 47.5866 78.2831H78.4246C79.2944 78.2831 79.9999 77.5776 79.9999 76.7072V26.5332C79.9999 25.6629 79.2944 24.9573 78.4246 24.9573ZM53.1707 34.1101L57.6763 28.1086H66.4422L61.9366 34.1101H53.1707ZM40.4626 34.1101L44.9652 28.1086H53.7353L49.2297 34.1101H40.4626ZM27.752 34.1101L32.2576 28.1086H41.0253L36.5228 34.1101H27.752ZM15.0451 34.1101L19.5507 28.1086H28.3172L23.8116 34.1101H15.0451ZM4.89131 26.5332C4.89131 25.6458 5.61457 24.9237 6.50386 24.9237C7.39253 24.9237 8.11579 25.6458 8.11579 26.5332C8.11579 27.4207 7.39253 28.1427 6.50386 28.1427C5.61457 28.1427 4.89131 27.4207 4.89131 26.5332ZM20.9466 15.409L27.2485 20.304L18.8818 21.9214L12.583 17.0258L20.9466 15.409ZM33.4228 12.9975L39.7241 17.8919L31.3623 19.5087L25.0604 14.6137L33.4228 12.9975ZM45.899 10.586L52.1997 15.4804L43.8378 17.0966L37.5366 12.2028L45.899 10.586ZM58.3795 8.17386L64.6765 13.0683L56.3134 14.6851L50.0128 9.79069L58.3795 8.17386ZM75.2093 11.0321L68.789 12.273L62.492 7.37858L74.0686 5.14103L75.2093 11.0321ZM8.47041 17.8205L14.7698 22.7167L10.2447 23.5913C9.3719 22.4848 8.01997 21.7725 6.50386 21.7725C5.63655 21.7725 4.82417 22.0063 4.12287 22.4121L3.4228 18.7964L8.47041 17.8205ZM4.89131 31.0126C5.39546 31.1945 5.93806 31.294 6.50386 31.294C8.57783 31.294 10.3454 29.9616 10.9979 28.1086H15.6103L11.1047 34.1101H4.89131V31.0126ZM65.8776 34.1101L70.3832 28.1086H76.8487V34.1101H65.8776Z" fill="white"/>
    <path d="M70.4901 54.0405C71.3604 54.0405 72.066 53.3356 72.066 52.4652V46.0199C72.066 45.1496 71.3604 44.444 70.4901 44.444H10.3643C9.49399 44.444 8.78842 45.1496 8.78842 46.0199V52.4652C8.78842 53.3356 9.49399 54.0405 10.3643 54.0405H70.4901ZM68.9148 50.8893H51.3849V47.5952H68.9148V50.8893ZM48.2336 50.8893H30.0177V47.5952H48.2336V50.8893ZM11.9403 47.5952H26.8664V50.8893H11.9403V47.5952Z" fill="white"/>
    <path d="M40.5511 75.1317H40.5249C39.6545 75.1317 38.9489 75.8367 38.9489 76.7071C38.9489 77.5774 39.6545 78.283 40.5249 78.283H40.5511C41.4215 78.283 42.127 77.5774 42.127 76.7071C42.127 75.8367 41.4215 75.1317 40.5511 75.1317Z" fill="white"/>
  </symbol>

  <symbol id="action" xmlns="http://www.w3.org/2000/svg" width="80" height="80" viewBox="0 0 80 80" fill="none">
    <path d="M10.0171 50.0132L11.2671 57.5132C11.3199 57.8302 11.4929 58.1148 11.75 58.3077L21.4375 65.5733L22.5641 68.953C22.6471 69.2019 22.8062 69.4184 23.0191 69.5718C23.2319 69.7252 23.4877 69.8077 23.75 69.8077C23.8191 69.8076 23.8881 69.8019 23.9563 69.7906L24.5555 69.6907L23.815 71.9122C23.7722 72.0397 23.7503 72.1732 23.75 72.3077V76.0577C23.75 76.3892 23.8817 76.7072 24.1161 76.9416C24.3506 77.176 24.6685 77.3077 25 77.3077H55C55.1902 77.3077 55.3778 77.2643 55.5486 77.1809C55.7195 77.0974 55.869 76.9761 55.9859 76.8261C56.1028 76.6762 56.1839 76.5015 56.2232 76.3155C56.2624 76.1294 56.2586 75.9369 56.2122 75.7525L55.4586 72.7596L63.1305 77.143C63.4054 77.3001 63.7297 77.347 64.0378 77.2742C64.3459 77.2015 64.615 77.0145 64.7907 76.7511C64.7907 76.7511 67.3921 72.8167 67.4044 72.7868C67.4092 72.7753 68.7133 67.6108 68.7133 67.6108C68.7823 67.3349 68.7551 67.0438 68.6363 66.7854C68.5174 66.527 68.3141 66.3169 68.0597 66.1897L65.5597 64.9397C65.325 64.8224 65.0594 64.7819 64.8004 64.824C64.5414 64.866 64.3022 64.9885 64.1167 65.1741C64.1167 65.1741 61.3894 67.9611 61.3288 68.1257L58.2894 66.4272L63.4349 60.6383C63.6099 60.4415 63.7182 60.1944 63.7444 59.9324L64.9944 47.4324C65.0067 47.309 65.0007 47.1845 64.9764 47.0628L63.0196 37.2786C62.6335 35.3483 61.7074 33.5673 60.349 32.1427C58.9905 30.718 57.2556 29.7083 55.3458 29.231L52.8517 28.6074L45.8871 26.2858L45 24.5125V22.6202L45.75 22.0577C45.9053 21.9413 46.0313 21.7903 46.1181 21.6167C46.2048 21.4431 46.25 21.2517 46.25 21.0577V18.5577C46.5816 18.5577 46.8995 18.426 47.1339 18.1916C47.3683 17.9571 47.5 17.6392 47.5 17.3077V12.5039C48.3286 9.95271 48.7504 7.28696 48.75 4.60456V3.55769C48.75 3.22616 48.6183 2.90822 48.3839 2.6738C48.1495 2.43938 47.8316 2.30769 47.5 2.30769H41.0355C38.5114 2.30067 36.0835 3.27597 34.2657 5.02722L32.2361 6.04206C31.1886 6.56582 30.3076 7.37095 29.6919 8.36721C29.0762 9.36347 28.75 10.5115 28.75 11.6827C28.75 12.8539 29.0762 14.0019 29.6919 14.9982C30.3076 15.9944 31.1886 16.7995 32.2361 17.3233L32.5103 17.4603C32.5476 17.763 32.6942 18.0416 32.9225 18.2437C33.1508 18.4458 33.4451 18.5575 33.75 18.5577V21.0577C33.75 21.2517 33.7952 21.4431 33.882 21.6167C33.9688 21.7903 34.0948 21.9413 34.25 22.0577L35 22.6202V24.5125L34.0946 26.3233L28.5092 28.5577H27.691C24.8385 28.5577 22.0785 29.5696 19.902 31.4134C17.7254 33.2571 16.2735 35.8132 15.8046 38.6269L15.0702 43.0311L10.2739 49.0264C10.1642 49.1636 10.0846 49.3224 10.0403 49.4924C9.99606 49.6624 9.98813 49.8399 10.0171 50.0132ZM26.25 72.5108L27.3449 69.2261L31.4555 68.5411C31.6796 68.5038 31.8893 68.406 32.062 68.2584C32.2348 68.1108 32.364 67.9189 32.4358 67.7033L33.2666 65.211L42.4475 68.8828L41.46 70.3641C41.2864 70.6243 41.2167 70.9402 41.2646 71.2493C41.3125 71.5584 41.4746 71.8383 41.7188 72.0338L45.1866 74.8077H26.25V72.5108ZM27.8841 45.4574L28.4186 49.735L25.7269 48.2308L27.8841 45.4574ZM38.25 36.3077C38.7558 36.6841 39.3695 36.8874 40 36.8874C40.6305 36.8874 41.2442 36.6841 41.75 36.3077C44.1033 34.5336 45.6713 31.9113 46.1205 28.9986L46.2443 29.0399C46.1881 33.0726 45.3648 37.0577 43.8183 40.7825C43.1992 42.2778 42.4676 43.724 41.6297 45.1086L41.25 45.0327V41.0577C41.25 40.7262 41.1183 40.4082 40.8839 40.1738C40.6495 39.9394 40.3316 39.8077 40 39.8077C39.6685 39.8077 39.3506 39.9394 39.1161 40.1738C38.8817 40.4082 38.75 40.7262 38.75 41.0577V45.0817L35.1455 45.9828L30.5591 43.6897C30.4361 43.6284 30.3038 43.588 30.1675 43.5699L30 42.2296V30.6539L33.895 29.096C34.364 31.9709 35.924 34.5541 38.25 36.3077ZM50.2227 72.8172L48.6572 74.3827L44.1758 70.7975L45.8022 68.358L47.0018 67.9582C47.0128 67.9544 47.0232 67.9496 47.0341 67.9455L51.4113 70.4467C51.4016 70.4641 51.391 70.4807 51.3821 70.4986L50.2227 72.8172ZM41.7839 57.2036L44.7921 53.8946C47.409 51.0177 49.5197 47.7184 51.0346 44.1366L48.7982 51.9647C48.7663 52.0763 48.7501 52.1917 48.75 52.3077V61.0964L41.7839 57.2036ZM51.25 52.4827L52.8191 46.991L53.75 48.8528V56.9072L51.25 60.4072V52.4827ZM51.25 30.7241C51.2563 38.6722 48.2934 46.336 42.9424 52.213L39.5436 55.9516L37.0291 54.5464L38.6613 52.9144C44.8017 46.7754 48.3958 38.543 48.7238 29.8663L51.25 30.7086V30.7241ZM31.1272 51.2483L30.53 46.4702L34.441 48.4257C34.7078 48.5591 35.0137 48.5927 35.3032 48.5203L40.0303 47.3385L40.1322 47.3589C39.1527 48.7037 38.0699 49.97 36.8935 51.1464L34.761 53.2789L31.1272 51.2483ZM24.1741 50.2267L36.5313 57.1322L35.2099 59.1143C35.1178 59.2508 35.0536 59.4042 35.0209 59.5657C34.9883 59.7271 34.9879 59.8934 35.0198 60.055C35.0516 60.2166 35.1151 60.3703 35.2066 60.5073C35.2981 60.6443 35.4157 60.7619 35.5527 60.8532C35.6898 60.9446 35.8435 61.008 36.0051 61.0398C36.1668 61.0715 36.3331 61.071 36.4945 61.0383C36.6559 61.0056 36.8093 60.9413 36.9458 60.8491C37.0823 60.7569 37.1992 60.6386 37.2899 60.5011L38.7203 58.3555L40.4777 59.3375L38.9599 61.6143C38.8678 61.7508 38.8036 61.9042 38.7709 62.0657C38.7383 62.2271 38.7379 62.3934 38.7698 62.555C38.8016 62.7166 38.8651 62.8703 38.9566 63.0073C39.0481 63.1443 39.1657 63.2619 39.3027 63.3532C39.4398 63.4446 39.5935 63.508 39.7551 63.5398C39.9168 63.5715 40.0831 63.571 40.2445 63.5383C40.4059 63.5056 40.5593 63.4413 40.6958 63.3491C40.8323 63.2569 40.9492 63.1386 41.0399 63.0011L42.6667 60.5608L46.9966 62.9805L45.1574 65.9375L44.6047 66.1217C44.341 66.2096 44.1141 66.3829 43.9599 66.6143L43.8646 66.7572L33.2032 62.4924L29.6346 58.9238C29.5184 58.8076 29.3805 58.7155 29.2287 58.6527C29.077 58.5899 28.9143 58.5576 28.75 58.5577H25.6008L21.5921 53.5469L24.1741 50.2267ZM51.7678 74.8077L52.1339 74.4416C52.229 74.3466 52.3082 74.2369 52.3683 74.1167L52.9366 72.9805L53.3963 74.8077H51.7678ZM63.3572 74.3936L48.2217 65.7452L49.1816 64.2019L64.4599 72.7399L63.3572 74.3936ZM65.2469 67.5786L66.0438 67.9772L65.4332 70.4196L63.4908 69.3343L65.2469 67.5786ZM58.4077 33.733C59.5114 34.8346 60.2631 36.2392 60.5674 37.7686L62.4875 47.3702L61.2969 59.28L56.0541 65.178L52.3807 63.1253L56.0172 58.0342C56.1686 57.8222 56.25 57.5682 56.25 57.3077V48.5577C56.25 48.3636 56.2048 48.1722 56.118 47.9986L53.75 43.2625V31.4086L54.7389 31.6558C56.1274 32.0031 57.3955 32.721 58.4077 33.733ZM35 16.0577V13.5577H45V16.0577H42.7952L40.5591 14.9397C40.3855 14.8529 40.1941 14.8077 40 14.8077C39.806 14.8077 39.6145 14.8529 39.441 14.9397L37.2049 16.0577H35ZM31.25 11.6827C31.2476 10.9753 31.4435 10.2814 31.8154 9.67963C32.1873 9.07788 32.7203 8.59237 33.3541 8.27815L35.5591 7.17565C35.6793 7.11558 35.789 7.03643 35.8839 6.94128C36.5589 6.26269 37.3617 5.72471 38.246 5.35848C39.1303 4.99224 40.0784 4.80503 41.0355 4.80769H46.2491C46.2312 6.92327 45.9223 9.02633 45.331 11.0577H33.75C33.4185 11.0577 33.1006 11.1894 32.8661 11.4238C32.6317 11.6582 32.5 11.9762 32.5 12.3077V14.5046C32.1051 14.1485 31.7896 13.7131 31.5742 13.2269C31.3588 12.7407 31.2484 12.2145 31.25 11.6827ZM37.5 18.5577C37.6941 18.5577 37.8855 18.5125 38.0591 18.4257L40 17.4552L41.941 18.4257C42.1145 18.5125 42.306 18.5577 42.5 18.5577H43.75V20.4327L41.25 22.3077H38.75L36.25 20.4327V18.5577H37.5ZM37.5835 24.5577C37.7998 24.72 38.063 24.8077 38.3335 24.8077H41.6669C41.9374 24.8077 42.2005 24.72 42.4169 24.5577L42.5 24.4952V24.8077C42.5 25.0018 42.5452 25.1932 42.6321 25.3667L43.7414 27.5855C43.6973 28.8954 43.3608 30.1788 42.7567 31.3419C42.1527 32.5049 41.2962 33.5183 40.25 34.3077C40.1778 34.3614 40.0901 34.3904 40 34.3904C39.91 34.3904 39.8223 34.3614 39.75 34.3077C38.7039 33.5184 37.8474 32.5052 37.2433 31.3423C36.6391 30.1793 36.3026 28.896 36.2583 27.5863L37.3677 25.3675C37.4548 25.1938 37.5001 25.0021 37.5 24.8077V24.4952L37.5835 24.5577ZM17.2261 44.3389C17.3596 44.1723 17.448 43.9742 17.483 43.7636L18.2705 39.0385C18.6366 36.8408 19.7596 34.8402 21.4451 33.3831C23.1306 31.9261 25.2725 31.1041 27.5 31.0596V41.8788L23.1628 47.455C23.0076 47.5372 22.8716 47.6514 22.7638 47.7901C22.6561 47.9288 22.579 48.0888 22.5378 48.2596L19.0139 52.7908C18.8415 53.0125 18.7488 53.2859 18.7507 53.5667C18.7527 53.8476 18.8491 54.1196 19.0246 54.3389L24.0246 60.5889C24.1416 60.7352 24.2901 60.8532 24.4589 60.9344C24.6278 61.0155 24.8127 61.0576 25 61.0577H28.2324L31.0699 63.8953L30.3022 66.1983L24.5982 67.1491L23.6858 64.4124C23.6054 64.1712 23.4534 63.9602 23.25 63.8077L13.6507 56.6082L12.5749 50.1527L17.2261 44.3389Z" fill="white"/>
  </symbol>

  <symbol id="scifi" xmlns="http://www.w3.org/2000/svg" width="114" height="114" viewBox="0 0 114 114" fill="none">
    <path d="M55.1745 73.8369L40.1695 58.0257C39.9721 57.8177 39.8654 57.5398 39.8729 57.2532C39.8804 56.9666 40.0015 56.6947 40.2095 56.4973L64.7578 33.2005C64.7861 33.1737 64.8143 33.1469 64.8425 33.1201C69.7308 29.3947 76.1428 28.4337 84.443 30.1817C84.6574 30.227 84.853 30.3364 85.0038 30.4953C85.1547 30.6543 85.2536 30.8553 85.2876 31.0718C86.6068 39.4584 85.3074 45.8081 81.3254 50.4933C81.3008 50.5226 81.2746 50.5505 81.2468 50.5768L56.6992 73.8729C56.4919 74.0696 56.2151 74.1763 55.9294 74.1695C55.6437 74.1628 55.3723 74.0432 55.1745 73.8369ZM42.482 57.3215L55.9987 71.5643L79.7206 49.0519C83.1785 44.9609 84.312 39.575 83.2695 32.1553C75.9152 30.7303 70.4774 31.5806 66.2061 34.8129L42.482 57.3215Z" fill="white"/>
    <path d="M34.7153 55.5232C34.6125 55.415 34.5332 55.2867 34.4823 55.1464C34.4315 55.0061 34.4103 54.8568 34.42 54.7079L34.565 52.5552C34.6976 50.3622 35.4596 48.2538 36.7596 46.4827C38.0596 44.7115 39.8427 43.3527 41.8952 42.5688L42.0272 42.5195C46.4229 40.8985 51.2744 41.0355 55.5715 42.9021C55.7268 42.9799 55.861 43.094 55.9628 43.2347C56.0646 43.3753 56.1311 43.5384 56.1565 43.7102C56.182 43.882 56.1656 44.0574 56.109 44.2215C56.0523 44.3856 55.9569 44.5337 55.8308 44.6532L44.7984 55.1232C44.6652 55.2494 44.5022 55.3396 44.3245 55.3854C44.1468 55.4312 43.9605 55.431 43.7829 55.3849C41.1651 54.7836 38.4316 54.9237 35.889 55.7894C35.7194 55.854 35.5363 55.8749 35.3566 55.8502C35.1768 55.8254 35.0062 55.7558 34.8604 55.6478C34.8085 55.6104 34.76 55.5688 34.7153 55.5232ZM42.2716 43.5827L42.6481 44.5951C40.9857 45.2334 39.5426 46.3375 38.4916 47.775C37.4406 49.2126 36.8263 50.9227 36.7223 52.7004L36.6812 53.3057C38.9931 52.7443 41.3994 52.6922 43.7335 53.153L53.087 44.2763C49.7054 43.2636 46.0885 43.3597 42.7655 44.5508L42.2716 43.5827Z" fill="white"/>
    <path d="M57.3952 79.4215C57.3513 79.3752 57.3114 79.3253 57.276 79.2723C57.1758 79.1211 57.1152 78.947 57.0998 78.7662C57.0845 78.5854 57.115 78.4036 57.1884 78.2377C58.1858 75.7438 58.4686 73.0213 58.005 70.3757C57.9683 70.196 57.9778 70.0099 58.0328 69.8348C58.0878 69.6598 58.1865 69.5017 58.3195 69.3753L69.3543 58.9031C69.4802 58.7835 69.633 58.696 69.7999 58.6479C69.9668 58.5999 70.1428 58.5928 70.313 58.6272C70.4832 58.6615 70.6426 58.7364 70.7778 58.8455C70.9129 58.9545 71.0198 59.0945 71.0894 59.2536C72.7288 63.6424 72.612 68.4945 70.7634 72.7994L70.7072 72.9287C69.8172 74.9374 68.3669 76.6469 66.5302 77.8526C64.6935 79.0583 62.5482 79.7089 60.3512 79.7267L58.1939 79.759C58.0447 79.7609 57.8967 79.7319 57.7593 79.6738C57.6218 79.6157 57.4979 79.5298 57.3952 79.4215ZM60.2337 70.5396C60.5718 72.8945 60.3939 75.2948 59.7124 77.5742L60.3191 77.5648C62.0992 77.5536 63.8383 77.0297 65.3284 76.0557C66.8184 75.0818 67.9962 73.699 68.7207 72.073L69.761 72.3839L68.7657 71.9633C70.1288 68.7072 70.4139 65.1002 69.5794 61.6703L60.2337 70.5396Z" fill="white"/>
    <path d="M69.2158 45.4927C68.4404 44.6759 67.9246 43.6476 67.7337 42.5376C67.5427 41.4277 67.6852 40.2861 68.1431 39.2572C68.601 38.2282 69.3537 37.3582 70.3061 36.7571C71.2585 36.156 72.3678 35.8508 73.4936 35.8802C74.6195 35.9095 75.7113 36.272 76.6311 36.9219C77.5509 37.5719 78.2573 38.4799 78.661 39.5313C79.0647 40.5827 79.1475 41.7302 78.899 42.8287C78.6505 43.9271 78.0818 44.9272 77.2649 45.7025C76.1688 46.7403 74.7059 47.301 73.197 47.2617C71.6881 47.2224 70.2563 46.5862 69.2158 45.4927ZM75.9071 39.1425C75.4263 38.6356 74.806 38.2827 74.1247 38.1284C73.4433 37.974 72.7314 38.0253 72.0792 38.2756C71.4269 38.5258 70.8635 38.9639 70.4603 39.5345C70.0571 40.105 69.8321 40.7823 69.8138 41.4807C69.7955 42.1791 69.9848 42.8672 70.3577 43.458C70.7305 44.0488 71.2702 44.5158 71.9085 44.7998C72.5468 45.0839 73.255 45.1722 73.9435 45.0537C74.632 44.9352 75.2699 44.6152 75.7765 44.1341C76.4547 43.4889 76.8494 42.6011 76.8738 41.6653C76.8983 40.7296 76.5507 39.8223 75.9071 39.1425Z" fill="white"/>
    <path d="M51.1626 76.1017L37.698 61.9137C37.5006 61.7058 37.394 61.4279 37.4015 61.1413C37.409 60.8547 37.53 60.5828 37.738 60.3854L40.9797 57.3089C41.1877 57.1115 41.4656 57.0049 41.7522 57.0124C42.0388 57.0199 42.3107 57.1409 42.5081 57.3489L55.9727 71.5369C56.1701 71.7448 56.2768 72.0227 56.2693 72.3093C56.2618 72.5959 56.1407 72.8678 55.9327 73.0652L52.691 76.1417C52.483 76.3391 52.2051 76.4457 51.9185 76.4382C51.6319 76.4307 51.36 76.3097 51.1626 76.1017ZM40.0105 61.2095L51.9868 73.8292L53.6602 72.2411L41.684 59.6214L40.0105 61.2095Z" fill="white"/>
    <path d="M30.1693 82.6483C29.7004 82.1059 29.404 81.4358 29.3182 80.724C29.2323 80.0121 29.3608 79.2908 29.6873 78.6524C30.5727 76.4951 31.1733 74.2317 31.4739 71.9193C32.1117 67.971 32.6154 64.852 39.5515 61.7719C39.7556 61.6812 39.9827 61.6558 40.2018 61.6993C40.4208 61.7428 40.621 61.8531 40.7748 62.015L51.2113 73.0122C51.3652 73.1742 51.4652 73.38 51.4973 73.6012C51.5295 73.8224 51.4923 74.0481 51.3908 74.2473C50.5365 76.0714 49.3819 77.739 47.9751 79.1805C45.7622 81.2806 43.4963 81.5471 40.8729 81.8562C38.5691 82.0569 36.3004 82.551 34.1219 83.3268C33.4716 83.6207 32.7483 83.7136 32.0448 83.5936C31.3413 83.4735 30.6898 83.146 30.1738 82.653L30.1693 82.6483ZM39.7386 64.0641C34.5354 66.5264 34.1988 68.6075 33.6091 72.2657C33.2803 74.7497 32.6317 77.1807 31.6794 79.4983C31.3853 80.1903 31.408 80.8126 31.7391 81.1615C32.0666 81.5066 32.6793 81.557 33.3766 81.3007C35.715 80.4669 38.1497 79.9327 40.6224 79.7108C43.1346 79.4133 44.7975 79.2197 46.489 77.6145C47.5487 76.5334 48.4342 75.2943 49.1139 73.9415L39.7386 64.0641Z" fill="white"/>
    <path d="M37.5607 75.5816C37.2517 75.2291 37.0538 74.7931 36.9918 74.3285C36.9298 73.8639 37.0065 73.3914 37.2122 72.9702C37.6475 71.9084 37.9432 70.7947 38.0919 69.6568C38.4169 67.6671 38.6989 65.9509 41.9449 64.3473C42.1518 64.2462 42.3855 64.2138 42.6121 64.2548C42.8387 64.2958 43.0462 64.4081 43.2045 64.5753L48.786 70.4565C48.9443 70.6234 49.0453 70.8364 49.0743 71.0647C49.1033 71.2929 49.0587 71.5244 48.947 71.7256C48.5392 72.4994 48.0175 73.2075 47.3993 73.8262C46.3118 74.7842 44.9167 75.3202 43.4675 75.3369C42.3344 75.4367 41.2185 75.6798 40.1466 76.0606C39.7171 76.2448 39.2427 76.2979 38.7831 76.2132C38.3236 76.1286 37.8993 75.9099 37.5636 75.5847L37.5607 75.5816ZM42.201 66.6588C40.6135 67.5961 40.4796 68.4177 40.2209 70.0031C40.0457 71.3111 39.7025 72.5911 39.1998 73.8113C39.1533 73.9022 39.1324 74.0039 39.1394 74.1057C39.1408 74.082 39.2385 74.0876 39.396 74.0291C40.6291 73.5875 41.9133 73.3048 43.2178 73.1877C44.1986 73.2121 45.1552 72.8817 45.9117 72.2572C46.1924 71.9815 46.4411 71.6751 46.6529 71.3436L42.201 66.6588Z" fill="white"/>
    <path d="M52.0402 61.7927C51.8428 61.5847 51.7361 61.3068 51.7436 61.0202C51.7511 60.7336 51.8722 60.4617 52.0802 60.2643L56.677 55.9019C56.8849 55.7045 57.1628 55.5978 57.4494 55.6053C57.736 55.6128 58.0079 55.7339 58.2053 55.9419C58.4027 56.1498 58.5094 56.4277 58.5019 56.7143C58.4944 57.0009 58.3733 57.2728 58.1653 57.4702L53.5685 61.8326C53.3606 62.03 53.0827 62.1367 52.7961 62.1292C52.5095 62.1217 52.2375 62.0006 52.0402 61.7927Z" fill="white"/>
    <path d="M48.5617 58.0885C48.3644 57.8805 48.2577 57.6026 48.2652 57.316C48.2727 57.0294 48.3937 56.7575 48.6017 56.5601L50.6233 54.6416C50.8313 54.4442 51.1091 54.3376 51.3958 54.3451C51.6824 54.3526 51.9543 54.4736 52.1517 54.6816C52.349 54.8896 52.4557 55.1674 52.4482 55.454C52.4407 55.7407 52.3197 56.0126 52.1117 56.2099L50.0901 58.1285C49.8821 58.3258 49.6043 58.4325 49.3176 58.425C49.031 58.4175 48.7591 58.2965 48.5617 58.0885Z" fill="white"/>
    <path d="M55.5483 65.4503C55.3509 65.2424 55.2442 64.9645 55.2517 64.6779C55.2592 64.3913 55.3803 64.1194 55.5882 63.922L57.6098 62.0035C57.8178 61.8061 58.0956 61.6994 58.3823 61.7069C58.6689 61.7144 58.9408 61.8355 59.1382 62.0434C59.3355 62.2514 59.4422 62.5293 59.4347 62.8159C59.4272 63.1025 59.3062 63.3744 59.0982 63.5718L57.0766 65.4903C56.8686 65.6877 56.5908 65.7944 56.3042 65.7869C56.0175 65.7794 55.7456 65.6583 55.5483 65.4503Z" fill="white"/>
  </symbol>

  <symbol id="horror" xmlns="http://www.w3.org/2000/svg" width="80" height="80" viewBox="0 0 80 80" fill="none">
    <path d="M77.9187 25.1071C77.6821 24.544 77.331 24.0363 76.8878 23.616C76.4445 23.1958 75.9188 22.8722 75.3439 22.6659C74.769 22.4596 74.1575 22.375 73.5482 22.4175C72.9389 22.46 72.345 22.6286 71.8044 22.9128C69.7469 23.9912 67.7699 25.2167 65.8887 26.5796C65.8887 26.3484 65.8887 26.1178 65.8887 25.8865C65.8887 19.0212 63.1615 12.4371 58.307 7.58261C53.4525 2.72811 46.8684 0.00088501 40.0031 0.00088501C33.1378 0.00088501 26.5537 2.72811 21.6992 7.58261C16.8447 12.4371 14.1175 19.0212 14.1175 25.8865V26.5796C12.2363 25.2167 10.2593 23.9912 8.20186 22.9128C7.22775 22.3956 6.0952 22.2622 5.02757 22.5388C3.95994 22.8155 3.03474 23.4822 2.43441 24.4074C1.83409 25.3326 1.60223 26.4491 1.78455 27.5369C1.96688 28.6246 2.55016 29.6045 3.41936 30.2834C7.12911 33.3125 10.4133 36.8281 13.1831 40.7353C12.6488 45.0196 11.8839 49.272 10.8919 53.474L7.41686 67.6152C7.38115 67.7609 7.37575 67.9123 7.40102 68.0601C7.42628 68.2079 7.48166 68.3489 7.56372 68.4744C7.64577 68.5999 7.75275 68.7071 7.87802 68.7895C8.00328 68.8719 8.14414 68.9277 8.29186 68.9534L12.38 69.6665C13.1056 69.7929 13.7955 70.0738 14.4031 70.49C15.0107 70.9062 15.5218 71.4481 15.9019 72.079L16.3987 72.9046C17.1225 74.102 18.1731 75.0679 19.4269 75.6888C20.6808 76.3097 22.0858 76.5598 23.4769 76.4096L24.4406 76.304C25.1701 76.2249 25.9081 76.3025 26.6053 76.5315C27.3024 76.7606 27.9426 77.1358 28.4831 77.6321L29.1262 78.2234C30.1772 79.1908 31.488 79.83 32.8974 80.0624C34.3068 80.2949 35.7534 80.1103 37.0594 79.5315L37.9169 79.1515C38.5734 78.8622 39.2831 78.7128 40.0006 78.7128C40.7181 78.7128 41.4278 78.8622 42.0844 79.1515L42.9419 79.5315C44.2477 80.1109 45.6944 80.2957 47.104 80.0633C48.5135 79.8309 49.8243 79.1913 50.875 78.2234L51.5181 77.6321C52.0586 77.1359 52.6989 76.7607 53.396 76.5317C54.0931 76.3027 54.8311 76.225 55.5606 76.304L56.5244 76.4096C57.9156 76.5605 59.321 76.3108 60.575 75.6897C61.829 75.0686 62.8794 74.1021 63.6025 72.904L64.1025 72.0796C64.4824 71.4486 64.9934 70.9065 65.6011 70.4902C66.2087 70.0738 66.8987 69.7929 67.6244 69.6665L71.7125 68.9534C71.8602 68.9277 72.0011 68.8719 72.1263 68.7895C72.2516 68.7071 72.3586 68.5999 72.4406 68.4744C72.5227 68.3489 72.5781 68.2079 72.6033 68.0601C72.6286 67.9123 72.6232 67.7609 72.5875 67.6152L69.115 53.4828C68.1215 49.2771 67.3558 45.0209 66.8212 40.7328C69.591 36.8256 72.8752 33.31 76.585 30.2809C77.3449 29.6849 77.8874 28.8552 78.1285 27.92C78.3695 26.9848 78.2958 25.9962 77.9187 25.1071ZM75.2406 28.5553C71.2363 31.82 67.7098 35.6305 64.7644 39.8753C64.6251 40.0902 64.5656 40.3472 64.5962 40.6015C65.1431 45.1076 65.9403 49.5797 66.9844 53.9971L70.1794 66.9971L67.2419 67.5096C66.2077 67.6894 65.2242 68.0894 64.3581 68.6825C63.492 69.2756 62.7634 70.0479 62.2219 70.9471L61.7219 71.7721C61.2137 72.612 60.4766 73.2895 59.5969 73.7251C58.7173 74.1607 57.7316 74.3364 56.7556 74.2315L55.7912 74.1259C54.7516 74.0123 53.6997 74.1224 52.7062 74.4488C51.7126 74.7752 50.8003 75.3104 50.0306 76.0184L49.3875 76.6096C48.6503 77.2888 47.7306 77.7376 46.7416 77.9008C45.7527 78.064 44.7376 77.9346 43.8212 77.5284L42.9637 77.1478C42.0287 76.7339 41.0175 76.5202 39.995 76.5202C38.9725 76.5202 37.9613 76.7339 37.0262 77.1478L36.1687 77.5284C35.2523 77.9343 34.2373 78.0637 33.2484 77.9004C32.2595 77.7372 31.3398 77.2885 30.6025 76.6096L29.9594 76.0184C29.1896 75.3104 28.2774 74.7752 27.2838 74.4488C26.2902 74.1224 25.2384 74.0123 24.1987 74.1259L23.2344 74.2315C22.2585 74.3359 21.2731 74.1601 20.3935 73.7246C19.514 73.2892 18.7767 72.6121 18.2681 71.7728L17.7712 70.9471C17.2297 70.0479 16.5011 69.2756 15.635 68.6825C14.7689 68.0894 13.7854 67.6894 12.7512 67.5096L9.81374 66.9971L13.0112 53.9846C14.054 49.5702 14.8505 45.1012 15.3969 40.5984C15.4275 40.3441 15.368 40.0871 15.2287 39.8721C12.2852 35.6289 8.76105 31.8196 4.75936 28.5553C4.32643 28.2107 4.03758 27.7171 3.94928 27.1709C3.86099 26.6247 3.97961 26.0652 4.28195 25.6018C4.58428 25.1384 5.04859 24.8045 5.58408 24.6652C6.11958 24.526 6.68774 24.5915 7.17749 24.849C9.76147 26.193 12.2039 27.7931 14.4681 29.6253C14.626 29.7561 14.8176 29.84 15.0209 29.8672C15.2242 29.8944 15.431 29.8639 15.6178 29.7792C15.8046 29.6944 15.9638 29.5589 16.0773 29.388C16.1907 29.2171 16.2538 29.0178 16.2594 28.8128C16.2831 27.8384 16.3019 26.864 16.3019 25.889C16.3019 19.6039 18.7986 13.5762 23.2429 9.1319C27.6871 4.68764 33.7148 2.19088 40 2.19088C46.2851 2.19088 52.3128 4.68764 56.7571 9.1319C61.2013 13.5762 63.6981 19.6039 63.6981 25.889C63.6981 26.864 63.7169 27.8384 63.7406 28.8128C63.7456 29.0181 63.8083 29.2178 63.9215 29.3891C64.0347 29.5605 64.1939 29.6965 64.3808 29.7816C64.5677 29.8667 64.7748 29.8974 64.9783 29.8704C65.1819 29.8433 65.3737 29.7594 65.5319 29.6284C67.796 27.796 70.2385 26.1957 72.8225 24.8515C73.0948 24.7084 73.394 24.6235 73.7009 24.6022C74.0078 24.5809 74.3158 24.6236 74.6054 24.7276C74.8949 24.8316 75.1597 24.9947 75.3829 25.2065C75.6061 25.4182 75.7828 25.6741 75.9019 25.9578C76.0923 26.4032 76.1307 26.899 76.0112 27.3685C75.8917 27.838 75.6209 28.2551 75.2406 28.5553Z" fill="white"/>
    <path d="M31.9138 13.8281C29.3938 13.8281 27.3438 16.3344 27.3438 19.4144C27.3438 22.4944 29.3938 25 31.9138 25C34.4338 25 36.4844 22.4937 36.4844 19.4144C36.4844 16.335 34.4375 13.8281 31.9138 13.8281ZM31.9138 22.8125C30.6225 22.8125 29.5312 21.2562 29.5312 19.4144C29.5312 17.5725 30.625 16.0156 31.9138 16.0156C33.2025 16.0156 34.2969 17.5719 34.2969 19.4144C34.2969 21.2569 33.2056 22.8125 31.9138 22.8125Z" fill="white"/>
    <path d="M48.0856 13.8281C45.5656 13.8281 43.5156 16.3344 43.5156 19.4144C43.5156 22.4944 45.5656 25 48.0856 25C50.6056 25 52.6562 22.4937 52.6562 19.4144C52.6562 16.335 50.6062 13.8281 48.0856 13.8281ZM48.0856 22.8125C46.7944 22.8125 45.7031 21.2562 45.7031 19.4144C45.7031 17.5725 46.7944 16.0156 48.0856 16.0156C49.3769 16.0156 50.4688 17.5719 50.4688 19.4144C50.4688 21.2569 49.375 22.8125 48.0856 22.8125Z" fill="white"/>
    <path d="M40 24.2969C37.35 24.2969 35.2731 27.4713 35.2731 31.5238C35.2731 35.5763 37.35 38.75 40 38.75C42.65 38.75 44.7262 35.5756 44.7262 31.5238C44.7262 27.4719 42.65 24.2969 40 24.2969ZM40 36.5625C38.8012 36.5625 37.4606 34.4075 37.4606 31.5238C37.4606 28.64 38.8012 26.4844 40 26.4844C41.1987 26.4844 42.5387 28.6394 42.5387 31.5238C42.5387 34.4081 41.1987 36.5625 40 36.5625Z" fill="white"/>
  </symbol>

  <symbol id="comedy" xmlns="http://www.w3.org/2000/svg" width="80" height="80" viewBox="0 0 80 80" fill="none">
    <path d="M56.8121 49.1391C56.0956 48.4974 54.9947 48.56 54.3565 49.2748C50.7286 53.3287 45.4973 55.6522 39.9999 55.6522C34.5043 55.6522 29.2712 53.3287 25.6434 49.2748C25.0017 48.56 23.9043 48.4974 23.1878 49.1391C22.4712 49.7791 22.4121 50.8783 23.0521 51.5948C27.3391 56.3843 33.5165 59.1304 39.9999 59.1304C46.4852 59.1304 52.6626 56.3826 56.9478 51.5948C57.5878 50.8783 57.5269 49.7791 56.8121 49.1391Z" fill="white"/>
    <path d="M40 0C17.9443 0 0 17.9443 0 40C0 62.0556 17.9443 80 40 80C62.0556 80 80 62.0556 80 40C80 17.9443 62.0556 0 40 0ZM40 76.5217C19.8609 76.5217 3.47826 60.1391 3.47826 40C3.47826 19.8609 19.8609 3.47826 40 3.47826C60.1391 3.47826 76.5217 19.8609 76.5217 40C76.5217 60.1391 60.1391 76.5217 40 76.5217Z" fill="white"/>
    <path d="M53.913 27.8261C49.1182 27.8261 45.2174 31.727 45.2174 36.5218C45.2174 37.4818 45.9965 38.2609 46.9565 38.2609C47.9165 38.2609 48.6956 37.4818 48.6956 36.5218C48.6956 33.6452 51.0365 31.3044 53.913 31.3044C56.7895 31.3044 59.1304 33.6452 59.1304 36.5218C59.1304 37.4818 59.9095 38.2609 60.8695 38.2609C61.8295 38.2609 62.6087 37.4818 62.6087 36.5218C62.6087 31.727 58.7078 27.8261 53.913 27.8261Z" fill="white"/>
    <path d="M31.3044 36.5218C31.3044 37.4818 32.0835 38.2609 33.0435 38.2609C34.0035 38.2609 34.7826 37.4818 34.7826 36.5218C34.7826 31.727 30.8817 27.8261 26.087 27.8261C21.2922 27.8261 17.3913 31.727 17.3913 36.5218C17.3913 37.4818 18.1704 38.2609 19.1304 38.2609C20.0904 38.2609 20.8696 37.4818 20.8696 36.5218C20.8696 33.6452 23.2104 31.3044 26.087 31.3044C28.9635 31.3044 31.3044 33.6452 31.3044 36.5218Z" fill="white"/>
  </symbol>

  <symbol id="documentary" xmlns="http://www.w3.org/2000/svg" width="80" height="80" viewBox="0 0 80 80" fill="none">
    <path d="M23.6219 54.4171H25.8891C26.1377 54.4171 26.3762 54.3184 26.552 54.1426C26.7278 53.9667 26.8266 53.7283 26.8266 53.4796C26.8266 53.231 26.7278 52.9926 26.552 52.8167C26.3762 52.6409 26.1377 52.5421 25.8891 52.5421H23.6219C23.3732 52.5421 23.1348 52.6409 22.959 52.8167C22.7832 52.9926 22.6844 53.231 22.6844 53.4796C22.6844 53.7283 22.7832 53.9667 22.959 54.1426C23.1348 54.3184 23.3732 54.4171 23.6219 54.4171Z" fill="white"/>
    <path d="M34.3578 56.7906H37.2579C37.5065 56.7906 37.7449 56.6919 37.9208 56.516C38.0966 56.3402 38.1954 56.1018 38.1954 55.8531C38.1954 55.6045 38.0966 55.366 37.9208 55.1902C37.7449 55.0144 37.5065 54.9156 37.2579 54.9156H34.3578C34.1092 54.9156 33.8708 55.0144 33.6949 55.1902C33.5191 55.366 33.4203 55.6045 33.4203 55.8531C33.4203 56.1018 33.5191 56.3402 33.6949 56.516C33.8708 56.6919 34.1092 56.7906 34.3578 56.7906Z" fill="white"/>
    <path d="M50.7891 61.6937H53.2141C53.4627 61.6937 53.7012 61.5949 53.877 61.4191C54.0528 61.2433 54.1516 61.0048 54.1516 60.7562C54.1516 60.5075 54.0528 60.2691 53.877 60.0933C53.7012 59.9174 53.4627 59.8187 53.2141 59.8187H50.7891C50.5404 59.8187 50.302 59.9174 50.1262 60.0933C49.9503 60.2691 49.8516 60.5075 49.8516 60.7562C49.8516 61.0048 49.9503 61.2433 50.1262 61.4191C50.302 61.5949 50.5404 61.6937 50.7891 61.6937Z" fill="white"/>
    <path d="M25.8484 61.2313C25.8484 61.4799 25.9472 61.7184 26.123 61.8942C26.2989 62.07 26.5373 62.1688 26.7859 62.1688H29.0531C29.3018 62.1688 29.5402 62.07 29.7161 61.8942C29.8919 61.7184 29.9906 61.4799 29.9906 61.2313C29.9906 60.9827 29.8919 60.7442 29.7161 60.5684C29.5402 60.3926 29.3018 60.2938 29.0531 60.2938H26.7859C26.5373 60.2938 26.2989 60.3926 26.123 60.5684C25.9472 60.7442 25.8484 60.9827 25.8484 61.2313Z" fill="white"/>
    <path d="M64.0876 63.2875C64.0876 63.5361 64.1864 63.7746 64.3622 63.9504C64.538 64.1262 64.7764 64.225 65.0251 64.225H67.7673C68.0159 64.225 68.2544 64.1262 68.4302 63.9504C68.606 63.7746 68.7048 63.5361 68.7048 63.2875C68.7048 63.0388 68.606 62.8004 68.4302 62.6246C68.2544 62.4488 68.0159 62.35 67.7673 62.35H65.0251C64.7764 62.35 64.538 62.4488 64.3622 62.6246C64.1864 62.8004 64.0876 63.0388 64.0876 63.2875Z" fill="white"/>
    <path d="M14.1844 62.35H11.4422C11.1936 62.35 10.9551 62.4488 10.7793 62.6246C10.6035 62.8004 10.5047 63.0388 10.5047 63.2875C10.5047 63.5361 10.6035 63.7746 10.7793 63.9504C10.9551 64.1262 11.1936 64.225 11.4422 64.225H14.1844C14.433 64.225 14.6715 64.1262 14.8473 63.9504C15.0231 63.7746 15.1219 63.5361 15.1219 63.2875C15.1219 63.0388 15.0231 62.8004 14.8473 62.6246C14.6715 62.4488 14.433 62.35 14.1844 62.35Z" fill="white"/>
    <path d="M44.3235 54.7079H46.5907C46.8393 54.7079 47.0778 54.6091 47.2536 54.4333C47.4294 54.2575 47.5282 54.019 47.5282 53.7704C47.5282 53.5217 47.4294 53.2833 47.2536 53.1074C47.0778 52.9316 46.8393 52.8329 46.5907 52.8329H44.3235C44.0748 52.8329 43.8364 52.9316 43.6606 53.1074C43.4848 53.2833 43.386 53.5217 43.386 53.7704C43.386 54.019 43.4848 54.2575 43.6606 54.4333C43.8364 54.6091 44.0748 54.7079 44.3235 54.7079Z" fill="white"/>
    <path d="M36.6719 41.6922H43.3281C43.5768 41.6922 43.8152 41.5935 43.991 41.4176C44.1669 41.2418 44.2656 41.0034 44.2656 40.7547V36.2797C44.2656 35.1484 43.8162 34.0634 43.0163 33.2635C42.2163 32.4635 41.1313 32.0141 40 32.0141C38.8687 32.0141 37.7837 32.4635 36.9837 33.2635C36.1838 34.0634 35.7344 35.1484 35.7344 36.2797V40.7547C35.7344 41.0034 35.8331 41.2418 36.009 41.4176C36.1848 41.5935 36.4232 41.6922 36.6719 41.6922ZM37.6094 36.2797C37.6094 35.6457 37.8612 35.0376 38.3096 34.5893C38.7579 34.141 39.366 33.8891 40 33.8891C40.634 33.8891 41.2421 34.141 41.6904 34.5893C42.1388 35.0376 42.3906 35.6457 42.3906 36.2797V39.8172H37.6094V36.2797Z" fill="white"/>
    <path d="M32.6766 29.8921C32.428 29.8921 32.1895 29.9909 32.0137 30.1667C31.8379 30.3425 31.7391 30.581 31.7391 30.8296V31.5499C31.7391 31.7986 31.8379 32.037 32.0137 32.2129C32.1895 32.3887 32.428 32.4874 32.6766 32.4874C32.9253 32.4874 33.1637 32.3887 33.3395 32.2129C33.5154 32.037 33.6141 31.7986 33.6141 31.5499V30.8296C33.6141 30.581 33.5154 30.3425 33.3395 30.1667C33.1637 29.9909 32.9253 29.8921 32.6766 29.8921Z" fill="white"/>
    <path d="M32.6766 33.4515C32.428 33.4515 32.1895 33.5503 32.0137 33.7261C31.8379 33.9019 31.7391 34.1403 31.7391 34.389V40.2484C31.7391 40.497 31.8379 40.7354 32.0137 40.9113C32.1895 41.0871 32.428 41.1859 32.6766 41.1859C32.9253 41.1859 33.1637 41.0871 33.3395 40.9113C33.5154 40.7354 33.6141 40.497 33.6141 40.2484V34.389C33.6141 34.1403 33.5154 33.9019 33.3395 33.7261C33.1637 33.5503 32.9253 33.4515 32.6766 33.4515Z" fill="white"/>
    <path d="M65.5406 48.7344C65.5406 48.4858 65.4419 48.2473 65.2661 48.0715C65.0902 47.8957 64.8518 47.7969 64.6031 47.7969H62.0203C61.7717 47.7969 61.5332 47.8957 61.3574 48.0715C61.1816 48.2473 61.0828 48.4858 61.0828 48.7344C61.0828 48.9831 61.1816 49.2215 61.3574 49.3973C61.5332 49.5732 61.7717 49.6719 62.0203 49.6719H64.6031C64.8518 49.6719 65.0902 49.5732 65.2661 49.3973C65.4419 49.2215 65.5406 48.9831 65.5406 48.7344Z" fill="white"/>
    <path d="M19.6296 42.6969C19.6296 42.4483 19.5308 42.2098 19.355 42.034C19.1792 41.8582 18.9407 41.7594 18.6921 41.7594H16.1077C15.8591 41.7594 15.6206 41.8582 15.4448 42.034C15.269 42.2098 15.1702 42.4483 15.1702 42.6969C15.1702 42.9455 15.269 43.184 15.4448 43.3598C15.6206 43.5356 15.8591 43.6344 16.1077 43.6344H18.6921C18.9407 43.6344 19.1792 43.5356 19.355 43.3598C19.5308 43.184 19.6296 42.9455 19.6296 42.6969Z" fill="white"/>
    <path d="M72.5531 72.3328V39.3996C73.2088 39.3818 73.8316 39.1091 74.2894 38.6394C74.7472 38.1696 75.0038 37.5399 75.0047 36.884V28.3437C75.0047 28.0951 74.9059 27.8566 74.7301 27.6808C74.5543 27.505 74.3158 27.4062 74.0672 27.4062H70.5281C70.2795 27.4062 70.041 27.505 69.8652 27.6808C69.6894 27.8566 69.5906 28.0951 69.5906 28.3437V30.2531H67.6797V28.3437C67.6797 28.0951 67.5809 27.8566 67.4051 27.6808C67.2293 27.505 66.9908 27.4062 66.7422 27.4062H63.2031C62.9545 27.4062 62.716 27.505 62.5402 27.6808C62.3644 27.8566 62.2656 28.0951 62.2656 28.3437V30.2531H60.3547V28.3437C60.3547 28.0951 60.2559 27.8566 60.0801 27.6808C59.9043 27.505 59.6658 27.4062 59.4172 27.4062H55.8781C55.6295 27.4062 55.391 27.505 55.2152 27.6808C55.0394 27.8566 54.9406 28.0951 54.9406 28.3437V36.8843C54.9415 37.5402 55.1981 38.1699 55.6559 38.6397C56.1136 39.1094 56.7365 39.3821 57.3922 39.4V44.8046H53.5094C53.2607 44.8046 53.0223 44.9034 52.8464 45.0792C52.6706 45.255 52.5719 45.4935 52.5719 45.7421V47.6515H51.7515V27.6203H53.3406C53.5229 27.6202 53.7013 27.567 53.8538 27.4671C54.0064 27.3672 54.1265 27.225 54.1995 27.0579C54.2724 26.8908 54.2951 26.7061 54.2646 26.5263C54.2342 26.3465 54.152 26.1795 54.0281 26.0457L40.9375 11.9121V9.64996L47.4131 6.83152C47.5784 6.75956 47.7195 6.64146 47.8193 6.49137C47.9192 6.34129 47.9737 6.16559 47.9763 5.98532C47.9789 5.80505 47.9294 5.62787 47.8338 5.47499C47.7383 5.32212 47.6007 5.20005 47.4375 5.1234L40.8244 2.0173C40.725 1.83388 40.5674 1.68883 40.3763 1.6051C40.1853 1.52136 39.9718 1.50374 39.7696 1.555C39.5674 1.60627 39.3881 1.7235 39.26 1.88814C39.1319 2.05278 39.0624 2.25543 39.0625 2.46402V11.9121L25.9715 26.0457C25.8477 26.1795 25.7655 26.3465 25.735 26.5263C25.7046 26.7061 25.7272 26.8908 25.8002 27.0579C25.8732 27.225 25.9933 27.3672 26.1458 27.4671C26.2984 27.567 26.4767 27.6202 26.659 27.6203H28.2481V47.6515H27.4278V45.7421C27.4278 45.4935 27.329 45.255 27.1532 45.0792C26.9774 44.9034 26.7389 44.8046 26.4903 44.8046H22.6078V39.3996C23.2635 39.3818 23.8863 39.1091 24.3441 38.6394C24.8019 38.1696 25.0585 37.5399 25.0594 36.884V28.3437C25.0594 28.0951 24.9606 27.8566 24.7848 27.6808C24.609 27.505 24.3705 27.4062 24.1219 27.4062H20.5828C20.3342 27.4062 20.0957 27.505 19.9199 27.6808C19.7441 27.8566 19.6453 28.0951 19.6453 28.3437V30.2531H17.7344V28.3437C17.7344 28.0951 17.6356 27.8566 17.4598 27.6808C17.284 27.505 17.0455 27.4062 16.7969 27.4062H13.2578C13.0092 27.4062 12.7707 27.505 12.5949 27.6808C12.4191 27.8566 12.3203 28.0951 12.3203 28.3437V30.2531H10.4094V28.3437C10.4094 28.0951 10.3106 27.8566 10.1348 27.6808C9.95896 27.505 9.7205 27.4062 9.47186 27.4062H5.9328C5.68416 27.4062 5.4457 27.505 5.26989 27.6808C5.09407 27.8566 4.9953 28.0951 4.9953 28.3437V36.8843C4.9962 37.5402 5.25279 38.1699 5.71056 38.6397C6.16833 39.1094 6.79121 39.3821 7.44686 39.4V72.3328C6.2776 72.382 5.17249 72.8807 4.36202 73.7249C3.55156 74.5692 3.09832 75.6937 3.09686 76.864V77.5359C3.09686 77.7845 3.19563 78.023 3.37145 78.1988C3.54727 78.3746 3.78572 78.4734 4.03436 78.4734H75.9656C76.2142 78.4734 76.4527 78.3746 76.6285 78.1988C76.8043 78.023 76.9031 77.7845 76.9031 77.5359V76.864C76.9016 75.6937 76.4484 74.5692 75.6379 73.7249C74.8275 72.8807 73.7224 72.382 72.5531 72.3328ZM40.9375 4.14183L44.7645 5.93871L40.9375 7.60496V4.14183ZM56.8156 36.8843V29.2812H58.4797V31.1906C58.4797 31.4392 58.5784 31.6777 58.7543 31.8535C58.9301 32.0293 59.1685 32.1281 59.4172 32.1281H63.2031C63.4517 32.1281 63.6902 32.0293 63.866 31.8535C64.0418 31.6777 64.1406 31.4392 64.1406 31.1906V29.2812H65.8047V31.1906C65.8047 31.4392 65.9034 31.6777 66.0793 31.8535C66.2551 32.0293 66.4935 32.1281 66.7422 32.1281H70.5281C70.7767 32.1281 71.0152 32.0293 71.191 31.8535C71.3668 31.6777 71.4656 31.4392 71.4656 31.1906V29.2812H73.1297V36.8843C73.1295 37.055 73.0616 37.2187 72.9409 37.3394C72.8202 37.46 72.6566 37.5279 72.4859 37.5281H57.4594C57.2887 37.5279 57.125 37.46 57.0043 37.3394C56.8836 37.2187 56.8158 37.055 56.8156 36.8843ZM40 13.6592L51.1944 25.7453H36.0937C35.8451 25.7453 35.6066 25.844 35.4308 26.0199C35.255 26.1957 35.1562 26.4341 35.1562 26.6828C35.1562 26.9314 35.255 27.1699 35.4308 27.3457C35.6066 27.5215 35.8451 27.6203 36.0937 27.6203H49.8765V47.6515H49.2297V45.7421C49.2297 45.4935 49.1309 45.255 48.9551 45.0792C48.7793 44.9034 48.5408 44.8046 48.2922 44.8046H42.4515C42.2029 44.8046 41.9644 44.9034 41.7886 45.0792C41.6128 45.255 41.514 45.4935 41.514 45.7421V47.6515H38.4859V45.7421C38.4859 45.4935 38.3871 45.255 38.2113 45.0792C38.0355 44.9034 37.7971 44.8046 37.5484 44.8046H31.7078C31.4592 44.8046 31.2207 44.9034 31.0449 45.0792C30.8691 45.255 30.7703 45.4935 30.7703 45.7421V47.6515H30.1234V27.6203H32.6562C32.9049 27.6203 33.1433 27.5215 33.3191 27.3457C33.495 27.1699 33.5937 26.9314 33.5937 26.6828C33.5937 26.4341 33.495 26.1957 33.3191 26.0199C33.1433 25.844 32.9049 25.7453 32.6562 25.7453H28.8056L40 13.6592ZM25.5531 46.6796V48.589C25.5531 48.8377 25.6519 49.0761 25.8277 49.2519C26.0035 49.4277 26.242 49.5265 26.4906 49.5265H31.7078C31.9564 49.5265 32.1949 49.4277 32.3707 49.2519C32.5465 49.0761 32.6453 48.8377 32.6453 48.589V46.6796H36.6109V48.589C36.6109 48.8377 36.7097 49.0761 36.8855 49.2519C37.0613 49.4277 37.2998 49.5265 37.5484 49.5265H42.4515C42.7002 49.5265 42.9386 49.4277 43.1145 49.2519C43.2903 49.0761 43.389 48.8377 43.389 48.589V46.6796H47.3547V48.589C47.3547 48.8377 47.4534 49.0761 47.6293 49.2519C47.8051 49.4277 48.0435 49.5265 48.2922 49.5265H53.5094C53.758 49.5265 53.9965 49.4277 54.1723 49.2519C54.3481 49.0761 54.4469 48.8377 54.4469 48.589V46.6796H58.1031V51.5937H56.325C56.0763 51.5937 55.8379 51.6925 55.6621 51.8683C55.4863 52.0441 55.3875 52.2826 55.3875 52.5312C55.3875 52.7799 55.4863 53.0183 55.6621 53.1941C55.8379 53.3699 56.0763 53.4687 56.325 53.4687H58.1031V61.1781C58.1031 61.4267 58.2019 61.6652 58.3777 61.841C58.5535 62.0168 58.792 62.1156 59.0406 62.1156C59.2892 62.1156 59.5277 62.0168 59.7035 61.841C59.8793 61.6652 59.9781 61.4267 59.9781 61.1781V57.1062H62.389C62.6377 57.1062 62.8761 57.0074 63.052 56.8316C63.2278 56.6558 63.3265 56.4173 63.3265 56.1687C63.3265 55.9201 63.2278 55.6816 63.052 55.5058C62.8761 55.33 62.6377 55.2312 62.389 55.2312H59.9781V45.7421C59.9779 45.5331 59.9078 45.3301 59.779 45.1654C59.6502 45.0008 59.47 44.8839 59.2672 44.8334V39.4031H70.6781V40.9953H68.1984C67.9498 40.9953 67.7113 41.094 67.5355 41.2699C67.3597 41.4457 67.2609 41.6841 67.2609 41.9328C67.2609 42.1814 67.3597 42.4199 67.5355 42.5957C67.7113 42.7715 67.9498 42.8703 68.1984 42.8703H70.6781V69.7843H68.3469C68.0982 69.7843 67.8598 69.8831 67.6839 70.0589C67.5081 70.2347 67.4094 70.4732 67.4094 70.7218C67.4094 70.9705 67.5081 71.2089 67.6839 71.3847C67.8598 71.5606 68.0982 71.6593 68.3469 71.6593H70.6781V72.3281H59.9781V64.4531C59.9781 64.2044 59.8793 63.966 59.7035 63.7902C59.5277 63.6144 59.2892 63.5156 59.0406 63.5156C58.792 63.5156 58.5535 63.6144 58.3777 63.7902C58.2019 63.966 58.1031 64.2044 58.1031 64.4531V67.8859H56.1672C55.9185 67.8859 55.6801 67.9847 55.5043 68.1605C55.3284 68.3363 55.2297 68.5748 55.2297 68.8234C55.2297 69.072 55.3284 69.3105 55.5043 69.4863C55.6801 69.6621 55.9185 69.7609 56.1672 69.7609H58.1031V72.3281H46.2359V67.8359H50.2219C50.4705 67.8359 50.709 67.7371 50.8848 67.5613C51.0606 67.3855 51.1594 67.147 51.1594 66.8984C51.1594 66.6497 51.0606 66.4113 50.8848 66.2355C50.709 66.0597 50.4705 65.9609 50.2219 65.9609H46.2298C46.1972 65.065 45.9415 64.1915 45.486 63.4193C45.0305 62.6472 44.3895 62.0009 43.6212 61.539L40.4806 59.664C40.3353 59.5773 40.1692 59.5314 40 59.5314C39.8307 59.5314 39.6647 59.5773 39.5194 59.664L36.3787 61.539C35.583 62.0169 34.9242 62.6921 34.4661 63.4994C34.008 64.3067 33.7662 65.2186 33.764 66.1468V69.1515H31.2125C30.9638 69.1515 30.7254 69.2503 30.5496 69.4261C30.3738 69.6019 30.275 69.8404 30.275 70.089C30.275 70.3377 30.3738 70.5761 30.5496 70.7519C30.7254 70.9277 30.9638 71.0265 31.2125 71.0265H33.764V72.3281H21.8969V66.5968H23.675C23.9236 66.5968 24.1621 66.4981 24.3379 66.3222C24.5137 66.1464 24.6125 65.908 24.6125 65.6593C24.6125 65.4107 24.5137 65.1722 24.3379 64.9964C24.1621 64.8206 23.9236 64.7218 23.675 64.7218H21.8969V46.6796H25.5531ZM44.3609 66.1468V72.3281H35.639V66.1468C35.6403 65.5429 35.7975 64.9495 36.0955 64.4243C36.3936 63.899 36.8222 63.4596 37.34 63.1487L40 61.5606L42.6605 63.1489C43.1781 63.4598 43.6066 63.8992 43.9046 64.4244C44.2025 64.9497 44.3597 65.543 44.3609 66.1468ZM6.8703 36.8843V29.2812H8.53436V31.1906C8.53436 31.4392 8.63313 31.6777 8.80895 31.8535C8.98476 32.0293 9.22322 32.1281 9.47186 32.1281H13.2578C13.5064 32.1281 13.7449 32.0293 13.9207 31.8535C14.0965 31.6777 14.1953 31.4392 14.1953 31.1906V29.2812H15.8594V31.1906C15.8594 31.4392 15.9581 31.6777 16.1339 31.8535C16.3098 32.0293 16.5482 32.1281 16.7969 32.1281H20.5828C20.8314 32.1281 21.0699 32.0293 21.2457 31.8535C21.4215 31.6777 21.5203 31.4392 21.5203 31.1906V29.2812H23.1844V36.8843C23.1842 37.055 23.1163 37.2187 22.9956 37.3394C22.8749 37.46 22.7113 37.5279 22.5406 37.5281H7.51405C7.34337 37.5279 7.17972 37.46 7.05903 37.3394C6.93834 37.2187 6.87047 37.055 6.8703 36.8843ZM18.2437 57.264H20.0219V65.4412C19.9864 65.5845 19.9864 65.7342 20.0219 65.8775V69.1515H17.6109C17.3623 69.1515 17.1238 69.2503 16.948 69.4261C16.7722 69.6019 16.6734 69.8404 16.6734 70.089C16.6734 70.3377 16.7722 70.5761 16.948 70.7519C17.1238 70.9277 17.3623 71.0265 17.6109 71.0265H20.0219V72.3281H9.32186V50.1468H11.7953C12.0439 50.1468 12.2824 50.0481 12.4582 49.8722C12.634 49.6964 12.7328 49.458 12.7328 49.2093C12.7328 48.9607 12.634 48.7222 12.4582 48.5464C12.2824 48.3706 12.0439 48.2718 11.7953 48.2718H9.32186V39.4031H20.7328V44.8334C20.5299 44.8839 20.3498 45.0008 20.221 45.1654C20.0922 45.3301 20.0221 45.5331 20.0219 45.7421V55.389H18.2437C17.9951 55.389 17.7566 55.4878 17.5808 55.6636C17.405 55.8394 17.3062 56.0779 17.3062 56.3265C17.3062 56.5752 17.405 56.8136 17.5808 56.9894C17.7566 57.1652 17.9951 57.264 18.2437 57.264ZM4.98436 76.5984C5.05105 75.9421 5.35877 75.3339 5.84799 74.8915C6.33722 74.449 6.97317 74.2037 7.6328 74.2031H72.3672C73.0268 74.2037 73.6628 74.449 74.152 74.8915C74.6412 75.3339 74.9489 75.9421 75.0156 76.5984H4.98436Z" fill="white"/>
  </symbol>
</svg>